<svg xmlns="http://www.w3.org/2000/svg" version="1.1" xmlns:xlink="http://www.w3.org/1999/xlink" xmlns:svgjs="http://svgjs.com/svgjs" width="512" height="512" x="0" y="0" viewBox="0 0 512 512" style="enable-background:new 0 0 512 512" xml:space="preserve" class=""><g><path d="m290.552 233.134-3.627 9.845L53.903 379.308 34.9 380.664l8.447-10.699 238.761-136.831z" style="" fill="#424242" data-original="#424242"></path><path d="M485.598 350.963c-.063-3.047-1.593-6.068-4.609-7.809l-190.56-110.02L34.9 380.664a32.562 32.562 0 0 0 16.282 28.201l170.403 98.382a35.478 35.478 0 0 0 35.478 0l209.793-121.128a37.511 37.511 0 0 0 18.755-32.484v-2.678l-.013.006z" style="" fill="#e8edef" data-original="#e8edef"></path><path d="M480.989 359.162 257.062 488.447a35.48 35.48 0 0 1-35.478 0L34.9 380.664a32.562 32.562 0 0 0 16.282 28.201l170.403 98.382a35.478 35.478 0 0 0 35.478 0l209.793-121.128a37.511 37.511 0 0 0 18.755-32.484v-2.476c-.001 3.112-1.541 6.225-4.622 8.003z" style="" fill="#c8ced6" data-original="#c8ced6"></path><path d="M485.598 350.963c.001.065.012.13.012.195v-.202l-.012.007z" style="" fill="#d1d1d1" data-original="#d1d1d1"></path><path d="m85.525 350.882 23.093 13.492 153.51-88.695-22.911-13.12z" style="" fill="#212938" data-original="#212938"></path><path d="m123.324 372.713-31.872 18.494v1.709l12.162 7.039 31.991-18.353v-1.839z" style="" fill="#284363" data-original="#284363"></path><path d="m103.69 398.26-12.238-7.053v1.709l12.162 7.039 31.991-18.353v-1.839z" style="" fill="#212938" data-original="#212938"></path><path d="m139.471 381.923-31.872 18.494v1.709l16.862 9.806 31.991-18.353v-1.839z" style="" fill="#284363" data-original="#284363"></path><path d="m124.537 410.237-16.938-9.82v1.709l16.862 9.806 31.991-18.353v-1.839z" style="" fill="#212938" data-original="#212938"></path><path d="m175.31 361.333-31.873 18.493v1.709l16.863 9.806 31.991-18.353v-1.839z" style="" fill="#284363" data-original="#284363"></path><path d="m160.376 389.646-16.939-9.82v1.709l16.863 9.806 31.991-18.353v-1.839z" style="" fill="#212938" data-original="#212938"></path><path d="m208.609 366.163-31.872 18.494v1.708l16.862 9.807 31.991-18.354v-1.839z" style="" fill="#284363" data-original="#284363"></path><path d="m193.675 394.476-16.938-9.819v1.708l16.862 9.807 31.991-18.354v-1.839z" style="" fill="#212938" data-original="#212938"></path><path d="m233.929 375.489-31.872 18.494v1.709l16.862 9.806 31.991-18.354v-1.838z" style="" fill="#284363" data-original="#284363"></path><path d="m218.995 403.803-16.938-9.82v1.709l16.862 9.806 31.991-18.354v-1.838z" style="" fill="#212938" data-original="#212938"></path><path d="m269.574 354.96-31.873 18.494v1.709l16.863 9.806 31.99-18.354v-1.838z" style="" fill="#284363" data-original="#284363"></path><path d="m254.639 383.274-16.938-9.82v1.709l16.863 9.806 31.99-18.354v-1.838z" style="" fill="#212938" data-original="#212938"></path><path d="m305.961 334.102-31.872 18.494v1.709l16.862 9.806 31.991-18.354v-1.838z" style="" fill="#284363" data-original="#284363"></path><path d="m291.027 362.416-16.938-9.82v1.709l16.862 9.806 31.991-18.354v-1.838z" style="" fill="#212938" data-original="#212938"></path><path d="m244.428 345.481-31.872 18.493v1.709l16.862 9.806 31.991-18.353v-1.839z" style="" fill="#284363" data-original="#284363"></path><path d="m229.494 373.794-16.938-9.82v1.709l16.862 9.806 31.991-18.353v-1.839z" style="" fill="#212938" data-original="#212938"></path><path d="m280.497 324.526-31.872 18.494v1.709l16.862 9.806 31.991-18.354v-1.838z" style="" fill="#284363" data-original="#284363"></path><path d="m265.563 352.84-16.938-9.82v1.709l16.862 9.806 31.991-18.354v-1.838z" style="" fill="#212938" data-original="#212938"></path><path d="m316.638 304.045-31.872 18.494v1.708l16.862 9.806 31.991-18.353v-1.839z" style="" fill="#284363" data-original="#284363"></path><path d="m301.704 332.358-16.938-9.819v1.708l16.862 9.806 31.991-18.353v-1.839z" style="" fill="#212938" data-original="#212938"></path><path d="m211.014 340.803-31.872 18.494v1.709l16.862 9.806 31.991-18.354v-1.838z" style="" fill="#284363" data-original="#284363"></path><path d="m196.08 369.117-16.938-9.82v1.709l16.862 9.806 31.991-18.354v-1.838z" style="" fill="#212938" data-original="#212938"></path><path d="m246.947 319.946-31.872 18.493v1.709l16.862 9.806 31.991-18.353v-1.839z" style="" fill="#284363" data-original="#284363"></path><path d="m232.013 348.259-16.938-9.82v1.709l16.862 9.806 31.991-18.353v-1.839z" style="" fill="#212938" data-original="#212938"></path><path d="m282.907 299.136-31.872 18.494v1.709l16.863 9.806 31.99-18.354v-1.838z" style="" fill="#284363" data-original="#284363"></path><path d="m267.973 327.45-16.938-9.82v1.709l16.863 9.806 31.99-18.354v-1.838z" style="" fill="#212938" data-original="#212938"></path><path d="m318.797 278.49-31.872 18.494v1.709l16.863 9.806 31.99-18.354v-1.838z" style="" fill="#284363" data-original="#284363"></path><path d="m303.864 306.804-16.939-9.82v1.709l16.863 9.806 31.99-18.354v-1.838z" style="" fill="#212938" data-original="#212938"></path><path d="m189.694 396.648-16.981-9.816-44.387 25.663v1.709l16.862 9.806 44.506-25.503v-1.839z" style="" fill="#284363" data-original="#284363"></path><path d="M128.326 412.495v1.709l16.862 9.806 44.506-25.503v-1.839l-44.43 25.647z" style="" fill="#212938" data-original="#212938"></path><path d="m215.097 406.254-16.946-9.797-48.854 28.276v1.709l16.863 9.806 48.971-28.176v-1.838z" style="" fill="#284363" data-original="#284363"></path><path d="M149.297 424.733v1.709l16.863 9.806 48.971-28.176v-1.798l-48.895 28.279z" style="" fill="#212938" data-original="#212938"></path><path d="m215.097 406.254.034.02v-.04z" style="" fill="#292929" data-original="#292929"></path><path d="m201.979 418.128-31.872 18.494v1.709l16.862 9.806 31.991-18.354v-1.838z" style="" fill="#284363" data-original="#284363"></path><path d="m187.045 446.442-16.938-9.82v1.709l16.862 9.806 31.991-18.354v-1.838z" style="" fill="#212938" data-original="#212938"></path><path d="m237.828 397.425-31.872 18.493v1.709l16.862 9.806 31.991-18.354v-1.838z" style="" fill="#284363" data-original="#284363"></path><path d="m222.894 425.738-16.938-9.82v1.709l16.862 9.806 31.991-18.354v-1.838z" style="" fill="#212938" data-original="#212938"></path><path d="M345.156 335.191 241.7 395.223v1.709l16.862 9.806 103.575-59.892v-1.838z" style="" fill="#284363" data-original="#284363"></path><path d="m258.638 405.043-16.938-9.82v1.709l16.862 9.806 103.575-59.892v-1.838z" style="" fill="#212938" data-original="#212938"></path><path d="m381.222 314.653-31.873 18.493v1.709l16.863 9.806 31.99-18.354v-1.838z" style="" fill="#284363" data-original="#284363"></path><path d="m366.287 342.966-16.938-9.82v1.709l16.863 9.806 31.99-18.354v-1.838z" style="" fill="#212938" data-original="#212938"></path><path d="m159.03 352.066-31.873 18.494v1.709l12.163 7.039 31.99-18.354v-1.838z" style="" fill="#284363" data-original="#284363"></path><path d="m139.395 377.613-12.238-7.053v1.709l12.163 7.039 31.99-18.354v-1.838z" style="" fill="#212938" data-original="#212938"></path><path d="m195.076 331.278-31.872 18.494v1.709l12.162 7.04 31.991-18.354v-1.839z" style="" fill="#284363" data-original="#284363"></path><path d="m175.442 356.825-12.238-7.053v1.709l12.162 7.04 31.991-18.354v-1.839z" style="" fill="#212938" data-original="#212938"></path><path d="m231.009 310.489-31.872 18.494v1.709l12.162 7.039 31.991-18.354v-1.838z" style="" fill="#284363" data-original="#284363"></path><path d="m211.375 336.036-12.238-7.053v1.709l12.162 7.039 31.991-18.354v-1.838z" style="" fill="#212938" data-original="#212938"></path><path d="m266.657 289.816-31.872 18.494v1.708l12.163 7.04 31.99-18.354v-1.838z" style="" fill="#284363" data-original="#284363"></path><path d="m247.023 315.363-12.238-7.053v1.708l12.163 7.04 31.99-18.354v-1.838z" style="" fill="#212938" data-original="#212938"></path><path d="m302.573 269.185-31.872 18.494v1.708l12.162 7.04 31.991-18.354v-1.838z" style="" fill="#284363" data-original="#284363"></path><path d="m282.939 294.732-12.238-7.053v1.708l12.162 7.04 31.991-18.354v-1.838z" style="" fill="#212938" data-original="#212938"></path><path d="m377.431 312.434-37.733-21.953-19.454 11.412v1.708l19.032 11.243-29.617 17.122.024.027v1.709l16.862 9.806 50.886-29.199v-1.838z" style="" fill="#284363" data-original="#284363"></path><path d="m261.409 417.541 92.37-53.167 42.073 24.107-92.333 53.444z" style="" fill="#c8ced6" data-original="#c8ced6"></path><path d="m340.826 313.948-20.582-12.055v1.708l19.032 11.243zM326.716 341.859l-.088-.05-.007.004-16.938-9.82v1.709l16.862 9.806 50.886-29.199v-1.838l-13.403 7.739z" style="" fill="#212938" data-original="#212938"></path><path d="m285.616 4.872.013-.007-4.464-2.584a16.949 16.949 0 0 0-16.968-.009L44.329 129.247a35.882 35.882 0 0 0-17.941 31.074v205.648a16.94 16.94 0 0 0 8.512 14.695l255.653-147.53V13.039c-.001-3.693-2.081-6.655-4.937-8.167z" style="" fill="#284363" data-original="#284363"></path><path d="M34.9 165.075a35.469 35.469 0 0 1 17.736-30.718l.206-.119L276.675 5.026c2.969-1.714 6.289-1.558 8.941-.154l.013-.007-4.464-2.584a16.949 16.949 0 0 0-16.968-.009L44.329 129.247a35.882 35.882 0 0 0-17.941 31.074v205.648a16.94 16.94 0 0 0 8.512 14.695V165.075z" style="" fill="#212938" data-original="#212938"></path><path d="M43.347 154.372v206.591l238.761-137.735V16.523z" style="" fill="#33aeff" data-original="#33aeff"></path><g style="opacity:0.2;"><path d="m147.622 300.809 117.729-67.915 16.757-46.656V16.523l-40.853 23.586z" style="" fill="#ffffff" data-original="#ffffff"></path></g><g style="opacity:0.2;"><path d="M191.534 68.816 88.492 128.307 43.347 254.003v106.96l54.564-31.477z" style="" fill="#ffffff" data-original="#ffffff"></path></g><path d="m323.369 89.153-40.135-74.29L43.347 154.347v50.776l40.172 23.381v23.894c0 14.271 15.455 23.184 27.808 16.037a40.637 40.637 0 0 0 20.285-35.173v-32.683l48.148-27.955v23.881c0 14.271 15.455 23.185 27.808 16.038a40.637 40.637 0 0 0 20.285-35.173v-32.669l48.171-27.969v23.821c0 14.271 15.455 23.184 27.807 16.037 12.554-7.264 19.575-20.212 19.575-34.716V89.131l-.037.022z" style="" fill="#f43834" data-original="#f43834"></path><path d="m179.736 172.57-40.914-73.839-48.093 27.985 40.961 73.812v23.894c0 14.271 15.455 23.185 27.808 16.037a40.637 40.637 0 0 0 20.285-35.173v-32.744l-.047.028zM235.062 42.839l-48.069 27.916 40.937 73.881v23.894c0 14.271 15.455 23.184 27.808 16.038a40.637 40.637 0 0 0 20.285-35.173v-32.744l-40.961-73.812z" style="" fill="#e3e3e3" data-original="#e3e3e3"></path><path d="M83.519 228.504v23.894c0 14.271 15.455 23.184 27.808 16.037a40.637 40.637 0 0 0 20.285-35.173v-32.744l-48.093 27.986z" style="" fill="#c40041" data-original="#c40041"></path><path d="M131.691 200.528v23.894c0 14.271 15.455 23.185 27.808 16.037a40.637 40.637 0 0 0 20.285-35.173v-32.744l-48.093 27.986z" style="" fill="#c8ced6" data-original="#c8ced6"></path><path d="M179.759 172.612v23.894c0 14.271 15.455 23.185 27.808 16.038a40.637 40.637 0 0 0 20.285-35.173v-32.744l-48.093 27.985zM276.024 116.659v23.894c0 14.271 15.455 23.184 27.807 16.037 12.554-7.264 19.575-20.212 19.575-34.716V89.131l-47.382 27.528z" style="" fill="#c40041" data-original="#c40041"></path><path d="M227.931 144.636v23.895c0 14.271 15.455 23.184 27.808 16.037a40.637 40.637 0 0 0 20.285-35.173v-32.744l-48.093 27.985z" style="" fill="#c8ced6" data-original="#c8ced6"></path><path d="m83.519 228.504-40.172-23.381v-50.776z" style="" fill="#c40041" data-original="#c40041"></path></g></svg>